<?xml version="1.0" encoding="UTF-8"?>
<svg width="24" height="24" viewBox="0 0 24 24" fill="none" xmlns="http://www.w3.org/2000/svg">
  <path fill-rule="evenodd" clip-rule="evenodd" d="M2.5 6.75C2.5 6.33579 2.83579 6 3.25 6H20.75C21.1642 6 21.5 6.33579 21.5 6.75V8.5C21.5 8.91421 21.1642 9.25 20.75 9.25H20.3385L19.4198 18.8959C19.2691 20.4781 17.9396 21.6857 16.3503 21.6857H7.64972C6.06037 21.6857 4.73091 20.4781 4.58023 18.8959L3.66149 9.25H3.25C2.83579 9.25 2.5 8.91421 2.5 8.5V6.75ZM5.17028 9.25L6.07334 18.7536C6.15066 19.5667 6.83394 20.1857 7.65066 20.1857H16.3493C17.1661 20.1857 17.8493 19.5667 17.9267 18.7536L18.8297 9.25H5.17028Z" fill="black"/>
  <path d="M5.625 12H18.375L17.7207 18.4774C17.6567 19.1111 17.123 19.5938 16.4861 19.5938H7.51393C6.87698 19.5938 6.34331 19.1111 6.27931 18.4774L5.625 12Z" fill="black"/>
  <path d="M5.75 10.625C5.75 10.0037 6.25368 9.5 6.875 9.5C7.26987 9.5 7.61723 9.7034 7.81804 10.0111C8.08729 9.6125 8.54318 9.35 9.06042 9.35C9.59488 9.35 10.0638 9.62999 10.3288 10.051C10.5985 9.71394 11.0132 9.5 11.4773 9.5C11.9562 9.5 12.3831 9.72785 12.653 10.0811C12.8738 9.82047 13.2034 9.655 13.5716 9.655C14.0325 9.655 14.4328 9.91402 14.6351 10.2945C14.844 10.0771 15.1377 9.94167 15.463 9.94167C16.0988 9.94167 16.6142 10.4571 16.6142 11.0929C16.6142 11.2149 16.5952 11.3325 16.56 11.4429H6.56786C6.10599 11.4429 5.75 11.0773 5.75 10.625Z" fill="black"/>
</svg>
